<svg width="656" height="69" viewBox="0 0 656 69" fill="none" xmlns="http://www.w3.org/2000/svg">
<path d="M14.64 43.64C16.3467 45.2933 18.24 46.5467 20.32 47.4C22.4 48.2533 24.56 48.8667 26.8 49.24C29.04 49.56 31.3333 49.7467 33.68 49.8C36.0267 49.8 38.2933 49.8 40.48 49.8C41.28 49.8 42.3467 49.7733 43.68 49.72C45.0667 49.6667 46.5333 49.56 48.08 49.4C49.68 49.1867 51.28 48.92 52.88 48.6C54.48 48.2267 55.92 47.7467 57.2 47.16C58.5333 46.5733 59.6 45.88 60.4 45.08C61.2533 44.2267 61.68 43.2133 61.68 42.04C61.68 40.8667 61.2267 39.8533 60.32 39C59.4667 38.0933 58.3467 37.32 56.96 36.68C55.5733 36.04 54 35.5067 52.24 35.08C50.5333 34.6 48.8267 34.2533 47.12 34.04C45.4133 33.7733 43.8133 33.5867 42.32 33.48C40.88 33.3733 39.7067 33.32 38.8 33.32H38.88C37.6 33.2667 36.0267 33.1333 34.16 32.92C32.2933 32.7067 30.3467 32.3867 28.32 31.96C26.2933 31.5333 24.2667 31 22.24 30.36C20.2133 29.6667 18.4 28.84 16.8 27.88C15.2 26.92 13.8933 25.8 12.88 24.52C11.8667 23.1867 11.36 21.6667 11.36 19.96C11.36 18.0933 11.84 16.4933 12.8 15.16C13.8133 13.8267 15.0933 12.7067 16.64 11.8C18.24 10.84 20.0267 10.0933 22 9.56C23.9733 8.97333 25.9733 8.52 28 8.2C30.0267 7.88 31.9467 7.66666 33.76 7.56C35.6267 7.45333 37.2 7.4 38.48 7.4C40.56 7.4 42.6667 7.50666 44.8 7.72C46.9867 7.88 49.12 8.2 51.2 8.68C53.28 9.16 55.3067 9.82667 57.28 10.68C59.2533 11.48 61.0667 12.52 62.72 13.8L58.48 16.84C56.9333 15.7733 55.3067 14.9467 53.6 14.36C51.8933 13.72 50.1333 13.24 48.32 12.92C46.5067 12.6 44.6667 12.4133 42.8 12.36C40.9333 12.2533 39.12 12.2 37.36 12.2C36.1333 12.2 34.4533 12.28 32.32 12.44C30.24 12.6 28.16 12.9467 26.08 13.48C24.0533 13.96 22.2933 14.7333 20.8 15.8C19.3067 16.8133 18.56 18.2 18.56 19.96C18.56 21.6667 19.28 23.0533 20.72 24.12C22.16 25.1333 24.0533 25.96 26.4 26.6C28.7467 27.1867 31.4133 27.6667 34.4 28.04C37.44 28.36 40.5333 28.7067 43.68 29.08C46.8267 29.4533 49.8933 29.9067 52.88 30.44C55.92 30.92 58.6133 31.64 60.96 32.6C63.3067 33.5067 65.2 34.7333 66.64 36.28C68.08 37.7733 68.8 39.6933 68.8 42.04C68.8 43.6933 68.2933 45.16 67.28 46.44C66.32 47.72 65.04 48.84 63.44 49.8C61.84 50.7067 60.0267 51.48 58 52.12C56.0267 52.7067 54.0267 53.1867 52 53.56C50.0267 53.9333 48.1333 54.2 46.32 54.36C44.5067 54.52 43.0133 54.6 41.84 54.6H35.84C33.6533 54.6 31.36 54.52 28.96 54.36C26.56 54.2 24.2133 53.8533 21.92 53.32C19.6267 52.7333 17.44 51.9333 15.36 50.92C13.28 49.9067 11.44 48.52 9.84 46.76L14.64 43.64ZM3.2 45.08C5.33333 48.5467 7.86667 51.24 10.8 53.16C13.7333 55.0267 16.9067 56.4133 20.32 57.32C23.7333 58.1733 27.2533 58.68 30.88 58.84C34.56 59 38.2133 59.08 41.84 59.08C43.44 59.08 45.3333 58.9733 47.52 58.76C49.7067 58.4933 51.9733 58.0933 54.32 57.56C56.6667 57.0267 58.96 56.3333 61.2 55.48C63.4933 54.5733 65.52 53.5067 67.28 52.28C69.0933 51 70.5333 49.5333 71.6 47.88C72.72 46.1733 73.28 44.2267 73.28 42.04C73.28 39.4267 72.6933 37.2133 71.52 35.4C70.4 33.5333 68.9067 31.9867 67.04 30.76C65.2267 29.48 63.12 28.4667 60.72 27.72C58.3733 26.92 55.9467 26.3067 53.44 25.88C50.9333 25.4533 48.48 25.1333 46.08 24.92C43.68 24.7067 41.5467 24.52 39.68 24.36C39.04 24.3067 37.8133 24.2 36 24.04C34.1867 23.8267 32.32 23.56 30.4 23.24C28.48 22.8667 26.7733 22.4133 25.28 21.88C23.7867 21.3467 23.04 20.7067 23.04 19.96C23.04 19.1067 23.7333 18.4667 25.12 18.04C26.5067 17.6133 28.08 17.2933 29.84 17.08C31.6533 16.8667 33.3867 16.76 35.04 16.76C36.7467 16.7067 37.8933 16.68 38.48 16.68C40.1867 16.68 41.92 16.76 43.68 16.92C45.44 17.0267 47.1467 17.2933 48.8 17.72C50.5067 18.1467 52.1067 18.76 53.6 19.56C55.1467 20.36 56.56 21.4 57.84 22.68L69.52 14.84C67.4933 12.0667 65.2 9.90666 62.64 8.36C60.08 6.76 57.36 5.56 54.48 4.76C51.6 3.96 48.5867 3.45333 45.44 3.24C42.3467 3.02666 39.2267 2.92 36.08 2.92C34.4267 2.92 32.5333 3.05333 30.4 3.32C28.32 3.53333 26.1867 3.90666 24 4.44C21.8667 4.97333 19.76 5.66666 17.68 6.52C15.6533 7.37333 13.84 8.44 12.24 9.72C10.64 11 9.36 12.4933 8.4 14.2C7.44 15.8533 6.96 17.7733 6.96 19.96C6.96 22.4667 7.57333 24.6267 8.8 26.44C10.0267 28.2533 11.6533 29.8 13.68 31.08C15.7067 32.36 18 33.4 20.56 34.2C23.12 35 25.7067 35.6667 28.32 36.2C30.9867 36.68 33.5467 37.08 36 37.4C38.5067 37.6667 40.6933 37.9067 42.56 38.12C43.0933 38.1733 44.1333 38.28 45.68 38.44C47.28 38.6 48.9333 38.84 50.64 39.16C52.3467 39.4267 53.8667 39.8 55.2 40.28C56.5333 40.76 57.2 41.3467 57.2 42.04C57.2 42.6267 56.7733 43.1333 55.92 43.56C55.0667 43.9333 53.9733 44.2533 52.64 44.52C51.3067 44.7333 49.84 44.8933 48.24 45C46.64 45.1067 45.0667 45.1867 43.52 45.24C42.0267 45.2933 40.6667 45.32 39.44 45.32C38.2667 45.32 37.44 45.32 36.96 45.32C34.9333 45.32 32.9333 45.24 30.96 45.08C28.9867 44.8667 27.0667 44.4933 25.2 43.96C23.3333 43.3733 21.5733 42.5733 19.92 41.56C18.2667 40.5467 16.7733 39.1867 15.44 37.48L3.2 45.08ZM14.8 35.48L10.96 31.56C9.09333 30.1733 7.62667 28.5467 6.56 26.68C5.49333 24.76 4.96 22.52 4.96 19.96C4.96 17.5067 5.46667 15.3467 6.48 13.48C7.54667 11.56 8.93333 9.90666 10.64 8.52C12.3467 7.13333 14.2933 5.96 16.48 5C18.6667 3.98667 20.9067 3.18667 23.2 2.6C25.4933 2.01333 27.76 1.58667 30 1.32C32.24 1.05333 34.2667 0.919999 36.08 0.919999C39.2267 0.919999 42.4 1.02666 45.6 1.24C48.8 1.4 51.92 1.88 54.96 2.68C58.0533 3.48 61.0133 4.70666 63.84 6.36C66.6667 8.01333 69.3067 10.3333 71.76 13.32C73.4133 14.9733 74.72 16.36 75.68 17.48C76.64 18.5467 77.3867 19.4533 77.92 20.2C78.5067 20.9467 78.9333 21.56 79.2 22.04C79.4667 22.4667 79.7333 22.8667 80 23.24L69.76 30.12C70.0267 30.3867 70.32 30.6267 70.64 30.84C71.0133 31 71.52 31.3467 72.16 31.88C72.8 32.4133 73.6267 33.1867 74.64 34.2C75.7067 35.16 77.12 36.5467 78.88 38.36C80.16 39.6933 81.1733 41.4 81.92 43.48C82.6667 45.56 83.04 47.7467 83.04 50.04C83.04 52.44 82.4533 54.5733 81.28 56.44C80.1067 58.3067 78.5867 59.9333 76.72 61.32C74.8533 62.7067 72.72 63.88 70.32 64.84C67.92 65.8 65.4933 66.5733 63.04 67.16C60.5867 67.7467 58.1867 68.1733 55.84 68.44C53.5467 68.7067 51.5467 68.84 49.84 68.84C46.6933 68.84 43.4933 68.84 40.24 68.84C36.9867 68.84 33.7867 68.5733 30.64 68.04C27.5467 67.5067 24.5333 66.6267 21.6 65.4C18.6667 64.1733 15.9733 62.3067 13.52 59.8C11.44 57.88 9.68 56.2 8.24 54.76C6.85333 53.2667 5.65333 51.9333 4.64 50.76C3.68 49.5333 2.85333 48.4133 2.16 47.4C1.52 46.3867 0.906667 45.4 0.32 44.44L14.8 35.48ZM137.164 16.76C137.804 16.76 138.444 16.8133 139.084 16.92C139.778 17.0267 140.391 17.2133 140.924 17.48C141.511 17.7467 141.991 18.12 142.364 18.6C142.738 19.08 142.924 19.72 142.924 20.52C142.924 21.2667 142.711 21.88 142.284 22.36C141.911 22.84 141.431 23.2133 140.844 23.48C140.258 23.7467 139.618 23.9333 138.924 24.04C138.231 24.1467 137.618 24.2 137.084 24.2H107.484V16.76H137.164ZM137.084 28.6C138.364 28.6 139.618 28.4667 140.844 28.2C142.124 27.88 143.244 27.4 144.204 26.76C145.164 26.12 145.938 25.2933 146.524 24.28C147.111 23.2133 147.404 21.96 147.404 20.52C147.404 19.0267 147.111 17.7733 146.524 16.76C145.991 15.6933 145.244 14.84 144.284 14.2C143.378 13.5067 142.284 13.0267 141.004 12.76C139.778 12.44 138.498 12.28 137.164 12.28H103.004V28.6H137.084ZM103.004 54.6H98.1244V7.4H137.164C139.351 7.4 141.378 7.66666 143.244 8.2C145.111 8.68 146.711 9.45333 148.044 10.52C149.431 11.5333 150.498 12.8933 151.244 14.6C152.044 16.2533 152.444 18.2267 152.444 20.52C152.444 23.4533 151.751 25.88 150.364 27.8C149.031 29.6667 147.031 31.1333 144.364 32.2V32.28C143.138 32.7067 141.431 33.0267 139.244 33.24C137.058 33.4533 134.604 33.6133 131.884 33.72C129.218 33.7733 126.418 33.8 123.484 33.8C120.551 33.8 117.751 33.7733 115.084 33.72C112.418 33.6133 110.018 33.5333 107.884 33.48C105.751 33.4267 104.124 33.4 103.004 33.4V54.6ZM156.924 20.52C156.924 17.48 156.444 14.8667 155.484 12.68C154.524 10.44 153.164 8.6 151.404 7.16C149.698 5.72 147.618 4.65333 145.164 3.96C142.764 3.26666 140.098 2.92 137.164 2.92H93.6444V59.08H107.484V37.8C108.764 37.8 110.418 37.8267 112.444 37.88C114.524 37.9333 116.764 38.0133 119.164 38.12C121.564 38.1733 124.071 38.2 126.684 38.2C129.298 38.2 131.804 38.1467 134.204 38.04C136.658 37.9333 138.924 37.7467 141.004 37.48C143.084 37.2133 144.818 36.84 146.204 36.36V36.28C149.724 34.7867 152.391 32.76 154.204 30.2C156.018 27.64 156.924 24.4133 156.924 20.52ZM91.6444 61.08V0.919999H137.164C139.244 0.919999 141.271 1.08 143.244 1.4C145.271 1.66666 147.298 2.28 149.324 3.24C151.404 4.14667 153.538 5.45333 155.724 7.16C157.911 8.86666 160.204 11.1333 162.604 13.96C164.151 15.5067 165.218 17.56 165.804 20.12C166.391 22.68 166.684 25.48 166.684 28.52C166.684 32.84 165.671 36.4133 163.644 39.24C161.671 42.0667 158.738 44.3333 154.844 46.04C153.778 46.4133 152.498 46.7333 151.004 47C149.564 47.2133 147.964 47.4 146.204 47.56C144.444 47.72 142.578 47.8267 140.604 47.88C138.684 47.9333 136.738 47.96 134.764 47.96C131.884 47.96 129.031 47.96 126.204 47.96C123.378 47.96 120.391 47.9333 117.244 47.88V68.84H99.8844L91.6444 61.08ZM177.533 7.4H184.573L207.773 30.2L230.573 7.4H237.533L210.173 34.68V54.6H205.213V34.76L177.533 7.4ZM214.653 59.08V36.52L248.173 2.92H228.813L207.693 24.2L186.253 2.92H166.733L200.813 36.68V59.08H214.653ZM198.813 37.48C195.933 34.6533 192.92 31.6933 189.773 28.6C186.68 25.5067 183.533 22.3867 180.333 19.24C177.133 16.04 173.96 12.8933 170.813 9.8C167.666 6.70666 164.68 3.74666 161.853 0.919999H187.053L207.613 21.4L227.933 0.919999H253.053L260.493 9.16L224.413 45.24V68.84H207.053L198.813 61.08V37.48ZM367.41 54.6V33.4H322.77V54.6H317.89V7.4H322.77V28.6H367.41V7.4H372.37V54.6H367.41ZM376.85 59.08V2.92H362.93V24.2H327.25V2.92H313.41V59.08H327.25V37.8H362.93V59.08H376.85ZM337.01 22.2H360.93V0.919999H378.85L386.61 9.16V68.84H369.17L360.93 61.08V47.56H337.01V68.84H319.65L311.41 61.08V0.919999H329.25L337.01 9.16V22.2ZM409.123 7.4V31C409.123 34.4667 409.683 37.4 410.803 39.8C411.923 42.1467 413.469 44.0667 415.443 45.56C417.469 47 419.816 48.0667 422.483 48.76C425.149 49.4 428.056 49.72 431.203 49.72H440.003C443.096 49.72 445.976 49.4 448.643 48.76C451.363 48.0667 453.709 47 455.683 45.56C457.709 44.0667 459.283 42.1467 460.403 39.8C461.576 37.4 462.163 34.4667 462.163 31V7.4H467.203V31C467.203 35.32 466.509 38.9733 465.123 41.96C463.736 44.9467 461.816 47.4 459.363 49.32C456.963 51.1867 454.109 52.5467 450.803 53.4C447.496 54.2 443.896 54.6 440.003 54.6H431.203C427.309 54.6 423.683 54.2 420.323 53.4C417.016 52.5467 414.136 51.1867 411.683 49.32C409.283 47.4 407.389 44.9467 406.003 41.96C404.669 38.9733 404.003 35.32 404.003 31V7.4H409.123ZM399.603 31C399.603 36.0667 400.376 40.3867 401.923 43.96C403.469 47.48 405.629 50.36 408.403 52.6C411.229 54.84 414.563 56.4933 418.403 57.56C422.296 58.5733 426.563 59.08 431.203 59.08H440.003C444.643 59.08 448.883 58.5733 452.723 57.56C456.616 56.4933 459.949 54.84 462.723 52.6C465.549 50.36 467.736 47.48 469.283 43.96C470.829 40.3867 471.603 36.0667 471.603 31V2.92H457.683V31C457.683 33.72 457.203 35.9867 456.243 37.8C455.283 39.6133 454.003 41.08 452.403 42.2C450.803 43.2667 448.936 44.04 446.803 44.52C444.669 45 442.403 45.24 440.003 45.24H431.203C428.803 45.24 426.536 45 424.403 44.52C422.269 44.04 420.403 43.24 418.803 42.12C417.203 41 415.923 39.5333 414.963 37.72C414.056 35.9067 413.603 33.6667 413.603 31V2.92H399.603V31ZM397.603 0.919999H415.603L423.363 9.16V39C423.363 39.5867 423.363 40.1467 423.363 40.68C423.416 41.2133 423.496 41.72 423.603 42.2C425.843 42.8933 428.376 43.24 431.203 43.24H440.003C442.083 43.24 444.056 43.0533 445.923 42.68C447.843 42.2533 449.523 41.56 450.963 40.6C452.403 39.64 453.549 38.3867 454.403 36.84C455.256 35.2933 455.683 33.3467 455.683 31V0.919999H473.603L481.363 9.16V39C481.363 44.3867 480.536 48.9733 478.883 52.76C477.229 56.5467 474.936 59.6133 472.003 61.96C469.069 64.36 465.549 66.0933 461.443 67.16C457.336 68.28 452.856 68.84 448.003 68.84H439.203C436.483 68.84 433.843 68.7067 431.283 68.44C428.776 68.1733 426.376 67.72 424.083 67.08C421.843 66.4933 419.763 65.6933 417.843 64.68C415.923 63.6667 414.216 62.4133 412.723 60.92C409.683 58.3067 407.176 55.8267 405.203 53.48C403.283 51.08 401.763 48.68 400.643 46.28C399.523 43.88 398.723 41.4533 398.243 39C397.816 36.4933 397.603 33.8267 397.603 31V0.919999ZM547.99 54.6L504.87 15V54.6H500.15V7.4H504.23L547.19 47V7.4H551.99V54.6H547.99ZM556.47 59.08V2.92H542.79V36.92L505.75 2.92H495.67V59.08H509.35V25L546.47 59.08H556.47ZM493.67 61.08V0.919999H506.47L540.79 32.36V0.919999H558.47L566.23 9.16V68.84H553.75L519.11 37.08V68.84H501.91L493.67 61.08ZM609.541 54.6V12.28H582.741V7.4H641.221V12.28H614.341V54.6H609.541ZM618.741 59.08V16.76H645.621V2.92H578.341V16.76H605.141V59.08H618.741ZM576.341 18.76V0.919999H647.621L655.381 9.16V26.52H628.501V68.84H611.381L603.141 61.08V26.52H584.581L576.341 18.76Z" fill="white"/>
</svg>
