<svg width="382" height="330" viewBox="0 0 382 330" fill="none" xmlns="http://www.w3.org/2000/svg">
<path d="M358 165C358 256.127 284.127 330 193 330C101.873 330 28 256.127 28 165C28 73.873 101.873 0 193 0C284.127 0 358 73.873 358 165Z" fill="url(#paint0_linear)"/>
<path d="M53.16 183.36C53.16 187.84 52.28 191.92 50.52 195.6C48.84 199.2 46.52 202.32 43.56 204.96C40.68 207.6 37.24 209.64 33.24 211.08C29.32 212.52 25.08 213.24 20.52 213.24C17.32 213.24 14.12 212.4 10.92 210.72C7.72 208.96 4.64 206.2 1.68 202.44L10.56 185.04C11.12 186.08 11.96 187.16 13.08 188.28C14.2 189.32 15.44 190.24 16.8 191.04C18.24 191.84 19.64 192.52 21 193.08C22.44 193.56 23.72 193.8 24.84 193.8C25.8 193.8 26.8 193.64 27.84 193.32C28.88 193 29.84 192.52 30.72 191.88C31.6 191.24 32.28 190.52 32.76 189.72C33.32 188.84 33.6 187.84 33.6 186.72C33.6 184.8 32.96 183.04 31.68 181.44C30.48 179.76 28.96 178.2 27.12 176.76C25.28 175.24 23.28 173.72 21.12 172.2C18.96 170.68 16.96 169.08 15.12 167.4C13.36 165.72 11.84 163.84 10.56 161.76C9.28 159.68 8.64 157.36 8.64 154.8C8.64 150.64 9.88 146.76 12.36 143.16C14.84 139.56 17.92 136.48 21.6 133.92C25.36 131.28 29.44 129.2 33.84 127.68C38.24 126.16 42.4 125.4 46.32 125.4C48.48 125.4 50.52 125.68 52.44 126.24C54.36 126.72 56 127.56 57.36 128.76C58.8 129.88 59.92 131.32 60.72 133.08C61.6 134.84 62.04 137.04 62.04 139.68C62.04 140.8 61.92 141.92 61.68 143.04C61.52 144.16 61.36 145.36 61.2 146.64L43.8 151.68C43.96 151.04 44.08 150.4 44.16 149.76C44.32 149.12 44.4 148.48 44.4 147.84C44.4 145.44 43.96 143.72 43.08 142.68C42.28 141.56 41.2 141 39.84 141C39.2 141 38.4 141.24 37.44 141.72C36.56 142.2 35.64 142.84 34.68 143.64C33.8 144.36 33.04 145.24 32.4 146.28C31.76 147.32 31.44 148.44 31.44 149.64C31.44 151.56 31.96 153.16 33 154.44C34.12 155.72 35.48 156.92 37.08 158.04C38.68 159.16 40.4 160.32 42.24 161.52C44.16 162.64 45.92 164.12 47.52 165.96C49.12 167.8 50.44 170.12 51.48 172.92C52.6 175.64 53.16 179.12 53.16 183.36ZM51.2025 213.12C53.6025 202.32 55.8825 191.76 58.0425 181.44C58.9225 177.12 59.8425 172.56 60.8025 167.76C61.7625 162.96 62.6825 158.24 63.5625 153.6C64.4425 148.96 65.2825 144.48 66.0825 140.16C66.8825 135.84 67.5625 131.88 68.1225 128.28C70.4425 127.56 72.7225 126.96 74.9625 126.48C77.2025 125.92 79.4825 125.44 81.8025 125.04C84.2025 124.64 86.4425 124.44 88.5225 124.44C92.1225 124.44 95.1225 125.04 97.5225 126.24C100.003 127.44 102.003 129.08 103.523 131.16C105.043 133.16 106.123 135.52 106.763 138.24C107.403 140.96 107.723 143.88 107.723 147C107.723 151.48 106.883 155.8 105.203 159.96C103.603 164.12 101.403 167.84 98.6025 171.12C95.8825 174.32 92.7225 176.88 89.1225 178.8C85.6025 180.72 81.9225 181.68 78.0825 181.68H76.7625C76.1225 184.4 75.5225 187.36 74.9625 190.56C74.4025 193.76 73.9225 196.72 73.5225 199.44C72.9625 202.64 72.4425 205.84 71.9625 209.04L51.2025 213.12ZM84.6825 138.96C83.8025 144.24 82.9225 149.24 82.0425 153.96C81.1625 158.68 80.2025 163.72 79.1625 169.08C80.4425 168.76 81.7625 168.04 83.1225 166.92C84.5625 165.72 85.8825 164.2 87.0825 162.36C88.2825 160.44 89.2425 158.24 89.9625 155.76C90.6825 153.28 91.0425 150.68 91.0425 147.96C91.0425 145 90.3625 142.76 89.0025 141.24C87.7225 139.72 86.2825 138.96 84.6825 138.96ZM106.271 211.2L111.791 187.08C111.791 183.64 111.711 179.92 111.551 175.92C111.471 171.84 111.311 167.76 111.071 163.68C110.831 159.6 110.591 155.68 110.351 151.92C110.111 148.08 109.911 144.72 109.751 141.84C109.591 138.88 109.431 136.52 109.271 134.76C109.111 133 109.031 132.12 109.031 132.12L128.591 124.68V139.32C128.591 141.32 128.591 143.36 128.591 145.44C128.591 147.52 128.551 149.56 128.471 151.56C128.471 153.56 128.471 155.44 128.471 157.2C128.471 158.96 128.471 160.44 128.471 161.64C129.511 158.92 130.751 155.56 132.191 151.56C133.711 147.56 135.111 143.68 136.391 139.92C137.911 135.52 139.471 130.88 141.071 126L159.671 130.2C156.231 137.08 152.871 143.92 149.591 150.72C148.231 153.68 146.791 156.76 145.271 159.96C143.751 163.08 142.231 166.24 140.711 169.44C139.191 172.56 137.711 175.6 136.271 178.56C134.831 181.52 133.511 184.28 132.311 186.84C131.911 188.92 131.391 191.2 130.751 193.68C130.191 196.16 129.631 198.52 129.071 200.76C128.351 203.4 127.591 206.04 126.791 208.68L106.271 211.2ZM167.603 213.24C169.683 202.2 171.723 191.36 173.723 180.72C174.443 176.24 175.243 171.6 176.123 166.8C177.003 161.92 177.843 157.12 178.643 152.4C179.443 147.68 180.203 143.12 180.923 138.72C181.643 134.24 182.283 130.16 182.843 126.48L202.283 125.16C200.923 130.76 199.563 136.6 198.203 142.68C196.923 148.76 195.723 154.68 194.603 160.44L206.483 159.12C207.603 153.44 208.603 147.96 209.483 142.68C210.363 137.32 211.523 131.8 212.963 126.12C214.803 125.8 216.843 125.56 219.083 125.4C221.323 125.16 223.403 124.96 225.323 124.8C227.243 124.64 228.843 124.52 230.123 124.44C231.483 124.28 232.163 124.2 232.163 124.2C231.043 127.8 229.963 131.76 228.923 136.08C227.963 140.32 227.003 144.76 226.043 149.4C225.083 153.96 224.163 158.6 223.283 163.32C222.403 168.04 221.603 172.52 220.883 176.76C219.123 186.92 217.483 197.32 215.963 207.96L197.243 210.12C198.283 205.32 199.203 200.64 200.003 196.08C200.803 192.24 201.603 188.24 202.403 184.08C203.283 179.92 203.963 176.36 204.443 173.4L192.803 174.48C192.243 177.52 191.563 181.04 190.763 185.04C190.043 189.04 189.363 192.84 188.723 196.44C187.843 200.76 186.963 205.08 186.083 209.4L167.603 213.24ZM269.529 189.6C268.409 194.16 266.809 198.04 264.729 201.24C262.729 204.44 260.329 207.08 257.529 209.16C254.809 211.24 251.889 212.76 248.769 213.72C245.649 214.68 242.529 215.16 239.409 215.16C237.569 215.16 235.689 214.84 233.769 214.2C231.849 213.64 230.129 212.76 228.609 211.56C227.089 210.36 225.809 208.84 224.769 207C223.809 205.16 223.329 203 223.329 200.52C223.329 200.2 223.329 199.88 223.329 199.56C223.329 199.24 223.369 198.92 223.449 198.6C223.769 195.32 224.289 191.36 225.009 186.72C225.729 182.08 226.489 177.24 227.289 172.2C228.089 167.16 228.969 162.12 229.929 157.08C230.889 151.96 231.729 147.32 232.449 143.16C233.249 139 233.929 135.56 234.489 132.84C235.049 130.04 235.409 128.32 235.569 127.68C237.249 127.52 239.249 127.32 241.569 127.08C243.889 126.84 246.049 126.64 248.049 126.48C250.529 126.24 252.969 126 255.369 125.76C253.289 135.44 251.449 144.2 249.849 152.04C249.129 155.4 248.409 158.76 247.689 162.12C247.049 165.48 246.409 168.56 245.769 171.36C245.209 174.16 244.689 176.6 244.209 178.68C243.809 180.68 243.449 182.32 243.129 183.6C242.889 184.88 242.569 186.52 242.169 188.52C241.849 190.44 241.689 192.2 241.689 193.8C241.689 195.08 242.009 196.16 242.649 197.04C243.289 197.84 244.089 198.24 245.049 198.24C246.409 198.24 247.529 197.72 248.409 196.68C249.289 195.56 250.009 194.24 250.569 192.72C251.209 191.2 251.649 189.68 251.889 188.16C252.209 186.56 252.489 185.32 252.729 184.44C253.209 182.12 253.729 179.56 254.289 176.76C254.929 173.88 255.529 170.92 256.089 167.88C256.729 164.76 257.329 161.6 257.889 158.4C258.529 155.2 259.129 152.08 259.689 149.04C261.049 142 262.369 134.72 263.649 127.2L281.889 126C281.889 126 281.689 127.04 281.289 129.12C280.889 131.2 280.369 133.96 279.729 137.4C279.089 140.84 278.369 144.76 277.569 149.16C276.849 153.56 276.009 158.16 275.049 162.96C274.089 167.68 273.129 172.36 272.169 177C271.289 181.56 270.409 185.76 269.529 189.6ZM270.603 213.6C272.843 202.32 275.003 191.32 277.083 180.6C277.883 176.12 278.723 171.44 279.603 166.56C280.563 161.6 281.443 156.76 282.243 152.04C283.043 147.24 283.763 142.64 284.403 138.24C285.123 133.76 285.683 129.68 286.083 126C288.563 125.84 290.963 125.68 293.283 125.52C295.363 125.36 297.483 125.24 299.643 125.16C301.803 125 303.723 124.84 305.403 124.68C306.443 130.84 307.363 136.72 308.163 142.32C308.563 144.72 308.963 147.24 309.363 149.88C309.843 152.44 310.283 154.92 310.683 157.32C311.083 159.72 311.483 162.04 311.883 164.28C312.283 166.44 312.683 168.36 313.083 170.04C313.403 168.36 313.763 166.44 314.163 164.28C314.563 162.04 315.003 159.72 315.483 157.32C315.963 154.84 316.443 152.32 316.923 149.76C317.483 147.2 318.003 144.72 318.483 142.32C319.683 136.72 320.923 130.88 322.203 124.8L336.843 123C334.123 135 331.723 146.36 329.643 157.08C328.683 161.72 327.723 166.4 326.763 171.12C325.883 175.84 325.043 180.4 324.243 184.8C323.443 189.2 322.763 193.28 322.203 197.04C321.643 200.72 321.203 203.84 320.883 206.4C320.643 206.4 319.683 206.6 318.003 207C316.403 207.32 314.523 207.72 312.363 208.2C310.283 208.68 308.163 209.2 306.003 209.76C303.923 210.24 302.363 210.64 301.323 210.96C300.763 204.48 300.163 198.32 299.523 192.48C299.283 190 299.003 187.44 298.683 184.8C298.363 182.16 298.043 179.64 297.723 177.24C297.483 174.84 297.203 172.6 296.883 170.52C296.643 168.36 296.403 166.56 296.163 165.12C295.923 166.56 295.603 168.32 295.203 170.4C294.803 172.48 294.403 174.72 294.003 177.12C293.603 179.44 293.203 181.88 292.803 184.44C292.403 186.92 291.963 189.36 291.483 191.76C290.443 197.44 289.323 203.36 288.123 209.52L270.603 213.6ZM335.058 213.12C336.898 204.32 338.658 195.64 340.338 187.08C341.058 183.48 341.778 179.72 342.498 175.8C343.218 171.88 343.898 168.04 344.538 164.28C345.258 160.44 345.858 156.76 346.338 153.24C346.898 149.64 347.378 146.36 347.778 143.4C345.938 143.16 344.058 143.08 342.138 143.16C340.298 143.24 338.458 143 336.618 142.44C336.698 141.16 336.738 139.68 336.738 138C336.738 136.32 336.778 134.64 336.858 132.96C336.938 131.12 337.018 129.16 337.098 127.08C339.178 127.24 341.258 127.36 343.338 127.44C345.418 127.52 347.498 127.56 349.578 127.56C353.658 127.56 357.578 127.48 361.338 127.32C365.178 127.08 368.698 126.84 371.898 126.6C375.178 126.28 378.378 125.92 381.498 125.52L380.178 132C379.778 133.84 379.378 135.72 378.978 137.64C378.658 139.56 378.338 141.2 378.018 142.56C376.258 143.04 374.458 143.4 372.618 143.64C370.858 143.8 369.098 144.04 367.338 144.36C366.778 147.08 366.178 150.12 365.538 153.48C364.898 156.76 364.258 160.2 363.618 163.8C363.058 167.32 362.498 170.92 361.938 174.6C361.378 178.28 360.818 181.8 360.258 185.16C358.978 193.08 357.778 201.28 356.658 209.76L335.058 213.12Z" fill="white"/>
<defs>
<linearGradient id="paint0_linear" x1="193" y1="0" x2="193" y2="330" gradientUnits="userSpaceOnUse">
<stop stop-color="#FF5151"/>
<stop offset="1" stop-color="#E7C655"/>
</linearGradient>
</defs>
</svg>
