<svg width="273" height="230" viewBox="0 0 273 230" fill="none" xmlns="http://www.w3.org/2000/svg">
<path d="M252 115C252 178.513 200.513 230 137 230C73.4873 230 22 178.513 22 115C22 51.4873 73.4873 0 137 0C200.513 0 252 51.4873 252 115Z" fill="url(#paint0_linear)"/>
<path d="M37.3265 123.758C37.3265 126.969 36.6959 129.893 35.4345 132.53C34.2305 135.11 32.5678 137.346 30.4465 139.238C28.3825 141.13 25.9172 142.592 23.0505 143.624C20.2412 144.656 17.2025 145.172 13.9345 145.172C11.6412 145.172 9.34785 144.57 7.05452 143.366C4.76118 142.105 2.55385 140.127 0.432516 137.432L6.79652 124.962C7.19785 125.707 7.79985 126.481 8.60252 127.284C9.40518 128.029 10.2938 128.689 11.2685 129.262C12.3005 129.835 13.3038 130.323 14.2785 130.724C15.3105 131.068 16.2278 131.24 17.0305 131.24C17.7185 131.24 18.4352 131.125 19.1805 130.896C19.9258 130.667 20.6138 130.323 21.2445 129.864C21.8752 129.405 22.3625 128.889 22.7065 128.316C23.1078 127.685 23.3085 126.969 23.3085 126.166C23.3085 124.79 22.8498 123.529 21.9325 122.382C21.0725 121.178 19.9832 120.06 18.6645 119.028C17.3458 117.939 15.9125 116.849 14.3645 115.76C12.8165 114.671 11.3832 113.524 10.0645 112.32C8.80318 111.116 7.71385 109.769 6.79652 108.278C5.87918 106.787 5.42052 105.125 5.42052 103.29C5.42052 100.309 6.30918 97.528 8.08652 94.948C9.86385 92.368 12.0712 90.1607 14.7085 88.326C17.4032 86.434 20.3272 84.9433 23.4805 83.854C26.6338 82.7647 29.6152 82.22 32.4245 82.22C33.9725 82.22 35.4345 82.4207 36.8105 82.822C38.1865 83.166 39.3619 83.768 40.3365 84.628C41.3685 85.4307 42.1712 86.4627 42.7445 87.724C43.3752 88.9853 43.6905 90.562 43.6905 92.454C43.6905 93.2567 43.6045 94.0593 43.4325 94.862C43.3179 95.6647 43.2032 96.5247 43.0885 97.442L30.6185 101.054C30.7332 100.595 30.8192 100.137 30.8765 99.678C30.9912 99.2193 31.0485 98.7607 31.0485 98.302C31.0485 96.582 30.7332 95.3493 30.1025 94.604C29.5292 93.8013 28.7552 93.4 27.7805 93.4C27.3218 93.4 26.7485 93.572 26.0605 93.916C25.4299 94.26 24.7705 94.7187 24.0825 95.292C23.4519 95.808 22.9072 96.4387 22.4485 97.184C21.9899 97.9293 21.7605 98.732 21.7605 99.592C21.7605 100.968 22.1332 102.115 22.8785 103.032C23.6812 103.949 24.6558 104.809 25.8025 105.612C26.9492 106.415 28.1819 107.246 29.5005 108.106C30.8765 108.909 32.1379 109.969 33.2845 111.288C34.4312 112.607 35.3772 114.269 36.1225 116.276C36.9252 118.225 37.3265 120.719 37.3265 123.758ZM35.9236 145.086C37.6436 137.346 39.2776 129.778 40.8256 122.382C41.4563 119.286 42.1156 116.018 42.8036 112.578C43.4916 109.138 44.151 105.755 44.7816 102.43C45.4123 99.1047 46.0143 95.894 46.5876 92.798C47.161 89.702 47.6483 86.864 48.0496 84.284C49.7123 83.768 51.3463 83.338 52.9516 82.994C54.557 82.5927 56.191 82.2487 57.8536 81.962C59.5736 81.6753 61.179 81.532 62.6696 81.532C65.2496 81.532 67.3996 81.962 69.1196 82.822C70.897 83.682 72.3303 84.8573 73.4196 86.348C74.509 87.7813 75.283 89.4727 75.7416 91.422C76.2003 93.3713 76.4296 95.464 76.4296 97.7C76.4296 100.911 75.8276 104.007 74.6236 106.988C73.477 109.969 71.9003 112.635 69.8936 114.986C67.9443 117.279 65.6796 119.114 63.0996 120.49C60.577 121.866 57.9396 122.554 55.1876 122.554H54.2416C53.783 124.503 53.353 126.625 52.9516 128.918C52.5503 131.211 52.2063 133.333 51.9196 135.282C51.5183 137.575 51.1456 139.869 50.8016 142.162L35.9236 145.086ZM59.9176 91.938C59.287 95.722 58.6563 99.3053 58.0256 102.688C57.395 106.071 56.707 109.683 55.9616 113.524C56.879 113.295 57.825 112.779 58.7996 111.976C59.8316 111.116 60.7776 110.027 61.6376 108.708C62.4976 107.332 63.1856 105.755 63.7016 103.978C64.2176 102.201 64.4756 100.337 64.4756 98.388C64.4756 96.2667 63.9883 94.6613 63.0136 93.572C62.0963 92.4827 61.0643 91.938 59.9176 91.938ZM75.3896 143.71L79.3456 126.424C79.3456 123.959 79.2882 121.293 79.1736 118.426C79.1162 115.502 79.0016 112.578 78.8296 109.654C78.6576 106.73 78.4856 103.921 78.3136 101.226C78.1416 98.474 77.9982 96.066 77.8836 94.002C77.7689 91.8807 77.6542 90.1893 77.5396 88.928C77.4249 87.6667 77.3676 87.036 77.3676 87.036L91.3856 81.704V92.196C91.3856 93.6293 91.3856 95.0913 91.3856 96.582C91.3856 98.0727 91.3569 99.5347 91.2996 100.968C91.2996 102.401 91.2996 103.749 91.2996 105.01C91.2996 106.271 91.2996 107.332 91.2996 108.192C92.0449 106.243 92.9336 103.835 93.9656 100.968C95.0549 98.1013 96.0582 95.3207 96.9756 92.626C98.0649 89.4727 99.1829 86.1473 100.33 82.65L113.66 85.66C111.194 90.5907 108.786 95.4927 106.436 100.366C105.461 102.487 104.429 104.695 103.34 106.988C102.25 109.224 101.161 111.489 100.072 113.782C98.9822 116.018 97.9216 118.197 96.8896 120.318C95.8576 122.439 94.9116 124.417 94.0516 126.252C93.7649 127.743 93.3922 129.377 92.9336 131.154C92.5322 132.931 92.1309 134.623 91.7296 136.228C91.2136 138.12 90.6689 140.012 90.0956 141.904L75.3896 143.71ZM119.344 145.172C120.835 137.26 122.297 129.491 123.73 121.866C124.246 118.655 124.82 115.33 125.45 111.89C126.081 108.393 126.683 104.953 127.256 101.57C127.83 98.1873 128.374 94.9193 128.89 91.766C129.406 88.5553 129.865 85.6313 130.266 82.994L144.198 82.048C143.224 86.0613 142.249 90.2467 141.274 94.604C140.357 98.9613 139.497 103.204 138.694 107.332L147.208 106.386C148.011 102.315 148.728 98.388 149.358 94.604C149.989 90.7627 150.82 86.8067 151.852 82.736C153.171 82.5067 154.633 82.3347 156.238 82.22C157.844 82.048 159.334 81.9047 160.71 81.79C162.086 81.6753 163.233 81.5893 164.15 81.532C165.125 81.4173 165.612 81.36 165.612 81.36C164.81 83.94 164.036 86.778 163.29 89.874C162.602 92.9127 161.914 96.0947 161.226 99.42C160.538 102.688 159.879 106.013 159.248 109.396C158.618 112.779 158.044 115.989 157.528 119.028C156.267 126.309 155.092 133.763 154.002 141.388L140.586 142.936C141.332 139.496 141.991 136.142 142.564 132.874C143.138 130.122 143.711 127.255 144.284 124.274C144.915 121.293 145.402 118.741 145.746 116.62L137.404 117.394C137.003 119.573 136.516 122.095 135.942 124.962C135.426 127.829 134.939 130.552 134.48 133.132C133.85 136.228 133.219 139.324 132.588 142.42L119.344 145.172ZM192.391 128.23C191.589 131.498 190.442 134.279 188.951 136.572C187.518 138.865 185.798 140.757 183.791 142.248C181.842 143.739 179.749 144.828 177.513 145.516C175.277 146.204 173.041 146.548 170.805 146.548C169.487 146.548 168.139 146.319 166.763 145.86C165.387 145.459 164.155 144.828 163.065 143.968C161.976 143.108 161.059 142.019 160.313 140.7C159.625 139.381 159.281 137.833 159.281 136.056C159.281 135.827 159.281 135.597 159.281 135.368C159.281 135.139 159.31 134.909 159.367 134.68C159.597 132.329 159.969 129.491 160.485 126.166C161.001 122.841 161.546 119.372 162.119 115.76C162.693 112.148 163.323 108.536 164.011 104.924C164.699 101.255 165.301 97.9293 165.817 94.948C166.391 91.9667 166.878 89.5013 167.279 87.552C167.681 85.5453 167.939 84.3127 168.053 83.854C169.257 83.7393 170.691 83.596 172.353 83.424C174.016 83.252 175.564 83.1087 176.997 82.994C178.775 82.822 180.523 82.65 182.243 82.478C180.753 89.4153 179.434 95.6933 178.287 101.312C177.771 103.72 177.255 106.128 176.739 108.536C176.281 110.944 175.822 113.151 175.363 115.158C174.962 117.165 174.589 118.913 174.245 120.404C173.959 121.837 173.701 123.013 173.471 123.93C173.299 124.847 173.07 126.023 172.783 127.456C172.554 128.832 172.439 130.093 172.439 131.24C172.439 132.157 172.669 132.931 173.127 133.562C173.586 134.135 174.159 134.422 174.847 134.422C175.822 134.422 176.625 134.049 177.255 133.304C177.886 132.501 178.402 131.555 178.803 130.466C179.262 129.377 179.577 128.287 179.749 127.198C179.979 126.051 180.179 125.163 180.351 124.532C180.695 122.869 181.068 121.035 181.469 119.028C181.928 116.964 182.358 114.843 182.759 112.664C183.218 110.428 183.648 108.163 184.049 105.87C184.508 103.577 184.938 101.341 185.339 99.162C186.314 94.1167 187.26 88.8993 188.177 83.51L201.249 82.65C201.249 82.65 201.106 83.3953 200.819 84.886C200.533 86.3767 200.16 88.3547 199.701 90.82C199.243 93.2853 198.727 96.0947 198.153 99.248C197.637 102.401 197.035 105.698 196.347 109.138C195.659 112.521 194.971 115.875 194.283 119.2C193.653 122.468 193.022 125.478 192.391 128.23ZM193.161 145.43C194.766 137.346 196.314 129.463 197.805 121.78C198.378 118.569 198.98 115.215 199.611 111.718C200.299 108.163 200.929 104.695 201.503 101.312C202.076 97.872 202.592 94.5753 203.051 91.422C203.567 88.2113 203.968 85.2873 204.255 82.65C206.032 82.5353 207.752 82.4207 209.415 82.306C210.905 82.1913 212.425 82.1053 213.973 82.048C215.521 81.9333 216.897 81.8187 218.101 81.704C218.846 86.1187 219.505 90.3327 220.079 94.346C220.365 96.066 220.652 97.872 220.939 99.764C221.283 101.599 221.598 103.376 221.885 105.096C222.171 106.816 222.458 108.479 222.745 110.084C223.031 111.632 223.318 113.008 223.605 114.212C223.834 113.008 224.092 111.632 224.379 110.084C224.665 108.479 224.981 106.816 225.325 105.096C225.669 103.319 226.013 101.513 226.357 99.678C226.758 97.8433 227.131 96.066 227.475 94.346C228.335 90.3327 229.223 86.1473 230.141 81.79L240.633 80.5C238.683 89.1 236.963 97.2413 235.473 104.924C234.785 108.249 234.097 111.603 233.409 114.986C232.778 118.369 232.176 121.637 231.603 124.79C231.029 127.943 230.542 130.867 230.141 133.562C229.739 136.199 229.424 138.435 229.195 140.27C229.023 140.27 228.335 140.413 227.131 140.7C225.984 140.929 224.637 141.216 223.089 141.56C221.598 141.904 220.079 142.277 218.531 142.678C217.04 143.022 215.922 143.309 215.177 143.538C214.775 138.894 214.345 134.479 213.887 130.294C213.715 128.517 213.514 126.682 213.285 124.79C213.055 122.898 212.826 121.092 212.597 119.372C212.425 117.652 212.224 116.047 211.995 114.556C211.823 113.008 211.651 111.718 211.479 110.686C211.307 111.718 211.077 112.979 210.791 114.47C210.504 115.961 210.217 117.566 209.931 119.286C209.644 120.949 209.357 122.697 209.071 124.532C208.784 126.309 208.469 128.058 208.125 129.778C207.379 133.849 206.577 138.091 205.717 142.506L193.161 145.43ZM239.353 145.086C240.672 138.779 241.933 132.559 243.137 126.424C243.653 123.844 244.169 121.149 244.685 118.34C245.201 115.531 245.689 112.779 246.147 110.084C246.663 107.332 247.093 104.695 247.437 102.172C247.839 99.592 248.183 97.2413 248.469 95.12C247.151 94.948 245.803 94.8907 244.427 94.948C243.109 95.0053 241.79 94.8333 240.471 94.432C240.529 93.5147 240.557 92.454 240.557 91.25C240.557 90.046 240.586 88.842 240.643 87.638C240.701 86.3193 240.758 84.9147 240.815 83.424C242.306 83.5387 243.797 83.6247 245.287 83.682C246.778 83.7393 248.269 83.768 249.759 83.768C252.683 83.768 255.493 83.7107 258.187 83.596C260.939 83.424 263.462 83.252 265.755 83.08C268.106 82.8507 270.399 82.5927 272.635 82.306L271.689 86.95C271.403 88.2687 271.116 89.616 270.829 90.992C270.6 92.368 270.371 93.5433 270.141 94.518C268.88 94.862 267.59 95.12 266.271 95.292C265.01 95.4067 263.749 95.5787 262.487 95.808C262.086 97.7573 261.656 99.936 261.197 102.344C260.739 104.695 260.28 107.16 259.821 109.74C259.42 112.263 259.019 114.843 258.617 117.48C258.216 120.117 257.815 122.64 257.413 125.048C256.496 130.724 255.636 136.601 254.833 142.678L239.353 145.086Z" fill="white"/>
<defs>
<linearGradient id="paint0_linear" x1="137" y1="0" x2="137" y2="230" gradientUnits="userSpaceOnUse">
<stop stop-color="#FF5151"/>
<stop offset="1" stop-color="#E7C655"/>
</linearGradient>
</defs>
</svg>
