<svg width="682" height="190" viewBox="0 0 682 190" fill="none" xmlns="http://www.w3.org/2000/svg">
<path d="M303 95C303 147.467 147.467 190 95 190C42.5329 190 0 147.467 0 95C0 42.5329 42.5329 0 95 0C147.467 0 303 42.5329 303 95Z" fill="#CE3838"/>
<path d="M33.64 110.64C35.3467 112.293 37.24 113.547 39.32 114.4C41.4 115.253 43.56 115.867 45.8 116.24C48.04 116.56 50.3333 116.747 52.68 116.8C55.0267 116.8 57.2933 116.8 59.48 116.8C60.28 116.8 61.3467 116.773 62.68 116.72C64.0667 116.667 65.5333 116.56 67.08 116.4C68.68 116.187 70.28 115.92 71.88 115.6C73.48 115.227 74.92 114.747 76.2 114.16C77.5333 113.573 78.6 112.88 79.4 112.08C80.2533 111.227 80.68 110.213 80.68 109.04C80.68 107.867 80.2267 106.853 79.32 106C78.4667 105.093 77.3467 104.32 75.96 103.68C74.5733 103.04 73 102.507 71.24 102.08C69.5333 101.6 67.8267 101.253 66.12 101.04C64.4133 100.773 62.8133 100.587 61.32 100.48C59.88 100.373 58.7067 100.32 57.8 100.32H57.88C56.6 100.267 55.0267 100.133 53.16 99.92C51.2933 99.7067 49.3467 99.3867 47.32 98.96C45.2933 98.5333 43.2667 98 41.24 97.36C39.2133 96.6667 37.4 95.84 35.8 94.88C34.2 93.92 32.8933 92.8 31.88 91.52C30.8667 90.1867 30.36 88.6667 30.36 86.96C30.36 85.0933 30.84 83.4933 31.8 82.16C32.8133 80.8267 34.0933 79.7067 35.64 78.8C37.24 77.84 39.0267 77.0933 41 76.56C42.9733 75.9733 44.9733 75.52 47 75.2C49.0267 74.88 50.9467 74.6667 52.76 74.56C54.6267 74.4533 56.2 74.4 57.48 74.4C59.56 74.4 61.6667 74.5067 63.8 74.72C65.9867 74.88 68.12 75.2 70.2 75.68C72.28 76.16 74.3067 76.8267 76.28 77.68C78.2533 78.48 80.0667 79.52 81.72 80.8L77.48 83.84C75.9333 82.7733 74.3067 81.9467 72.6 81.36C70.8933 80.72 69.1333 80.24 67.32 79.92C65.5067 79.6 63.6667 79.4133 61.8 79.36C59.9333 79.2533 58.12 79.2 56.36 79.2C55.1333 79.2 53.4533 79.28 51.32 79.44C49.24 79.6 47.16 79.9467 45.08 80.48C43.0533 80.96 41.2933 81.7333 39.8 82.8C38.3067 83.8133 37.56 85.2 37.56 86.96C37.56 88.6667 38.28 90.0533 39.72 91.12C41.16 92.1333 43.0533 92.96 45.4 93.6C47.7467 94.1867 50.4133 94.6667 53.4 95.04C56.44 95.36 59.5333 95.7067 62.68 96.08C65.8267 96.4533 68.8933 96.9067 71.88 97.44C74.92 97.92 77.6133 98.64 79.96 99.6C82.3067 100.507 84.2 101.733 85.64 103.28C87.08 104.773 87.8 106.693 87.8 109.04C87.8 110.693 87.2933 112.16 86.28 113.44C85.32 114.72 84.04 115.84 82.44 116.8C80.84 117.707 79.0267 118.48 77 119.12C75.0267 119.707 73.0267 120.187 71 120.56C69.0267 120.933 67.1333 121.2 65.32 121.36C63.5067 121.52 62.0133 121.6 60.84 121.6H54.84C52.6533 121.6 50.36 121.52 47.96 121.36C45.56 121.2 43.2133 120.853 40.92 120.32C38.6267 119.733 36.44 118.933 34.36 117.92C32.28 116.907 30.44 115.52 28.84 113.76L33.64 110.64ZM22.2 112.08C24.3333 115.547 26.8667 118.24 29.8 120.16C32.7333 122.027 35.9067 123.413 39.32 124.32C42.7333 125.173 46.2533 125.68 49.88 125.84C53.56 126 57.2133 126.08 60.84 126.08C62.44 126.08 64.3333 125.973 66.52 125.76C68.7067 125.493 70.9733 125.093 73.32 124.56C75.6667 124.027 77.96 123.333 80.2 122.48C82.4933 121.573 84.52 120.507 86.28 119.28C88.0933 118 89.5333 116.533 90.6 114.88C91.72 113.173 92.28 111.227 92.28 109.04C92.28 106.427 91.6933 104.213 90.52 102.4C89.4 100.533 87.9067 98.9867 86.04 97.76C84.2267 96.48 82.12 95.4667 79.72 94.72C77.3733 93.92 74.9467 93.3067 72.44 92.88C69.9333 92.4533 67.48 92.1333 65.08 91.92C62.68 91.7067 60.5467 91.52 58.68 91.36C58.04 91.3067 56.8133 91.2 55 91.04C53.1867 90.8267 51.32 90.56 49.4 90.24C47.48 89.8667 45.7733 89.4133 44.28 88.88C42.7867 88.3467 42.04 87.7067 42.04 86.96C42.04 86.1067 42.7333 85.4667 44.12 85.04C45.5067 84.6133 47.08 84.2933 48.84 84.08C50.6533 83.8667 52.3867 83.76 54.04 83.76C55.7467 83.7067 56.8933 83.68 57.48 83.68C59.1867 83.68 60.92 83.76 62.68 83.92C64.44 84.0267 66.1467 84.2933 67.8 84.72C69.5067 85.1467 71.1067 85.76 72.6 86.56C74.1467 87.36 75.56 88.4 76.84 89.68L88.52 81.84C86.4933 79.0667 84.2 76.9067 81.64 75.36C79.08 73.76 76.36 72.56 73.48 71.76C70.6 70.96 67.5867 70.4533 64.44 70.24C61.3467 70.0267 58.2267 69.92 55.08 69.92C53.4267 69.92 51.5333 70.0533 49.4 70.32C47.32 70.5333 45.1867 70.9067 43 71.44C40.8667 71.9733 38.76 72.6667 36.68 73.52C34.6533 74.3733 32.84 75.44 31.24 76.72C29.64 78 28.36 79.4933 27.4 81.2C26.44 82.8533 25.96 84.7733 25.96 86.96C25.96 89.4667 26.5733 91.6267 27.8 93.44C29.0267 95.2533 30.6533 96.8 32.68 98.08C34.7067 99.36 37 100.4 39.56 101.2C42.12 102 44.7067 102.667 47.32 103.2C49.9867 103.68 52.5467 104.08 55 104.4C57.5067 104.667 59.6933 104.907 61.56 105.12C62.0933 105.173 63.1333 105.28 64.68 105.44C66.28 105.6 67.9333 105.84 69.64 106.16C71.3467 106.427 72.8667 106.8 74.2 107.28C75.5333 107.76 76.2 108.347 76.2 109.04C76.2 109.627 75.7733 110.133 74.92 110.56C74.0667 110.933 72.9733 111.253 71.64 111.52C70.3067 111.733 68.84 111.893 67.24 112C65.64 112.107 64.0667 112.187 62.52 112.24C61.0267 112.293 59.6667 112.32 58.44 112.32C57.2667 112.32 56.44 112.32 55.96 112.32C53.9333 112.32 51.9333 112.24 49.96 112.08C47.9867 111.867 46.0667 111.493 44.2 110.96C42.3333 110.373 40.5733 109.573 38.92 108.56C37.2667 107.547 35.7733 106.187 34.44 104.48L22.2 112.08ZM33.8 102.48L29.96 98.56C28.0933 97.1733 26.6267 95.5467 25.56 93.68C24.4933 91.76 23.96 89.52 23.96 86.96C23.96 84.5067 24.4667 82.3467 25.48 80.48C26.5467 78.56 27.9333 76.9067 29.64 75.52C31.3467 74.1333 33.2933 72.96 35.48 72C37.6667 70.9867 39.9067 70.1867 42.2 69.6C44.4933 69.0133 46.76 68.5867 49 68.32C51.24 68.0533 53.2667 67.92 55.08 67.92C58.2267 67.92 61.4 68.0267 64.6 68.24C67.8 68.4 70.92 68.88 73.96 69.68C77.0533 70.48 80.0133 71.7067 82.84 73.36C85.6667 75.0133 88.3067 77.3333 90.76 80.32C92.4133 81.9733 93.72 83.36 94.68 84.48C95.64 85.5467 96.3867 86.4533 96.92 87.2C97.5067 87.9467 97.9333 88.56 98.2 89.04C98.4667 89.4667 98.7333 89.8667 99 90.24L88.76 97.12C89.0267 97.3867 89.32 97.6267 89.64 97.84C90.0133 98 90.52 98.3467 91.16 98.88C91.8 99.4133 92.6267 100.187 93.64 101.2C94.7067 102.16 96.12 103.547 97.88 105.36C99.16 106.693 100.173 108.4 100.92 110.48C101.667 112.56 102.04 114.747 102.04 117.04C102.04 119.44 101.453 121.573 100.28 123.44C99.1067 125.307 97.5867 126.933 95.72 128.32C93.8533 129.707 91.72 130.88 89.32 131.84C86.92 132.8 84.4933 133.573 82.04 134.16C79.5867 134.747 77.1867 135.173 74.84 135.44C72.5467 135.707 70.5467 135.84 68.84 135.84C65.6933 135.84 62.4933 135.84 59.24 135.84C55.9867 135.84 52.7867 135.573 49.64 135.04C46.5467 134.507 43.5333 133.627 40.6 132.4C37.6667 131.173 34.9733 129.307 32.52 126.8C30.44 124.88 28.68 123.2 27.24 121.76C25.8533 120.267 24.6533 118.933 23.64 117.76C22.68 116.533 21.8533 115.413 21.16 114.4C20.52 113.387 19.9067 112.4 19.32 111.44L33.8 102.48ZM156.164 83.76C156.804 83.76 157.444 83.8133 158.084 83.92C158.778 84.0267 159.391 84.2133 159.924 84.48C160.511 84.7467 160.991 85.12 161.364 85.6C161.738 86.08 161.924 86.72 161.924 87.52C161.924 88.2667 161.711 88.88 161.284 89.36C160.911 89.84 160.431 90.2133 159.844 90.48C159.258 90.7467 158.618 90.9333 157.924 91.04C157.231 91.1467 156.618 91.2 156.084 91.2H126.484V83.76H156.164ZM156.084 95.6C157.364 95.6 158.618 95.4667 159.844 95.2C161.124 94.88 162.244 94.4 163.204 93.76C164.164 93.12 164.938 92.2933 165.524 91.28C166.111 90.2133 166.404 88.96 166.404 87.52C166.404 86.0267 166.111 84.7733 165.524 83.76C164.991 82.6933 164.244 81.84 163.284 81.2C162.378 80.5067 161.284 80.0267 160.004 79.76C158.778 79.44 157.498 79.28 156.164 79.28H122.004V95.6H156.084ZM122.004 121.6H117.124V74.4H156.164C158.351 74.4 160.378 74.6667 162.244 75.2C164.111 75.68 165.711 76.4533 167.044 77.52C168.431 78.5333 169.498 79.8933 170.244 81.6C171.044 83.2533 171.444 85.2267 171.444 87.52C171.444 90.4533 170.751 92.88 169.364 94.8C168.031 96.6667 166.031 98.1333 163.364 99.2V99.28C162.138 99.7067 160.431 100.027 158.244 100.24C156.058 100.453 153.604 100.613 150.884 100.72C148.218 100.773 145.418 100.8 142.484 100.8C139.551 100.8 136.751 100.773 134.084 100.72C131.418 100.613 129.018 100.533 126.884 100.48C124.751 100.427 123.124 100.4 122.004 100.4V121.6ZM175.924 87.52C175.924 84.48 175.444 81.8667 174.484 79.68C173.524 77.44 172.164 75.6 170.404 74.16C168.698 72.72 166.618 71.6533 164.164 70.96C161.764 70.2667 159.098 69.92 156.164 69.92H112.644V126.08H126.484V104.8C127.764 104.8 129.418 104.827 131.444 104.88C133.524 104.933 135.764 105.013 138.164 105.12C140.564 105.173 143.071 105.2 145.684 105.2C148.298 105.2 150.804 105.147 153.204 105.04C155.658 104.933 157.924 104.747 160.004 104.48C162.084 104.213 163.818 103.84 165.204 103.36V103.28C168.724 101.787 171.391 99.76 173.204 97.2C175.018 94.64 175.924 91.4133 175.924 87.52ZM110.644 128.08V67.92H156.164C158.244 67.92 160.271 68.08 162.244 68.4C164.271 68.6667 166.298 69.28 168.324 70.24C170.404 71.1467 172.538 72.4533 174.724 74.16C176.911 75.8667 179.204 78.1333 181.604 80.96C183.151 82.5067 184.218 84.56 184.804 87.12C185.391 89.68 185.684 92.48 185.684 95.52C185.684 99.84 184.671 103.413 182.644 106.24C180.671 109.067 177.738 111.333 173.844 113.04C172.778 113.413 171.498 113.733 170.004 114C168.564 114.213 166.964 114.4 165.204 114.56C163.444 114.72 161.578 114.827 159.604 114.88C157.684 114.933 155.738 114.96 153.764 114.96C150.884 114.96 148.031 114.96 145.204 114.96C142.378 114.96 139.391 114.933 136.244 114.88V135.84H118.884L110.644 128.08ZM196.533 74.4H203.573L226.773 97.2L249.573 74.4H256.533L229.173 101.68V121.6H224.213V101.76L196.533 74.4ZM233.653 126.08V103.52L267.173 69.92H247.813L226.693 91.2L205.253 69.92H185.733L219.813 103.68V126.08H233.653ZM217.813 104.48C214.933 101.653 211.92 98.6933 208.773 95.6C205.68 92.5067 202.533 89.3867 199.333 86.24C196.133 83.04 192.96 79.8933 189.813 76.8C186.666 73.7067 183.68 70.7467 180.853 67.92H206.053L226.613 88.4L246.933 67.92H272.053L279.493 76.16L243.413 112.24V135.84H226.053L217.813 128.08V104.48ZM386.41 121.6V100.4H341.77V121.6H336.89V74.4H341.77V95.6H386.41V74.4H391.37V121.6H386.41ZM395.85 126.08V69.92H381.93V91.2H346.25V69.92H332.41V126.08H346.25V104.8H381.93V126.08H395.85ZM356.01 89.2H379.93V67.92H397.85L405.61 76.16V135.84H388.17L379.93 128.08V114.56H356.01V135.84H338.65L330.41 128.08V67.92H348.25L356.01 76.16V89.2ZM428.123 74.4V98C428.123 101.467 428.683 104.4 429.803 106.8C430.923 109.147 432.469 111.067 434.443 112.56C436.469 114 438.816 115.067 441.483 115.76C444.149 116.4 447.056 116.72 450.203 116.72H459.003C462.096 116.72 464.976 116.4 467.643 115.76C470.363 115.067 472.709 114 474.683 112.56C476.709 111.067 478.283 109.147 479.403 106.8C480.576 104.4 481.163 101.467 481.163 98V74.4H486.203V98C486.203 102.32 485.509 105.973 484.123 108.96C482.736 111.947 480.816 114.4 478.363 116.32C475.963 118.187 473.109 119.547 469.803 120.4C466.496 121.2 462.896 121.6 459.003 121.6H450.203C446.309 121.6 442.683 121.2 439.323 120.4C436.016 119.547 433.136 118.187 430.683 116.32C428.283 114.4 426.389 111.947 425.003 108.96C423.669 105.973 423.003 102.32 423.003 98V74.4H428.123ZM418.603 98C418.603 103.067 419.376 107.387 420.923 110.96C422.469 114.48 424.629 117.36 427.403 119.6C430.229 121.84 433.563 123.493 437.403 124.56C441.296 125.573 445.563 126.08 450.203 126.08H459.003C463.643 126.08 467.883 125.573 471.723 124.56C475.616 123.493 478.949 121.84 481.723 119.6C484.549 117.36 486.736 114.48 488.283 110.96C489.829 107.387 490.603 103.067 490.603 98V69.92H476.683V98C476.683 100.72 476.203 102.987 475.243 104.8C474.283 106.613 473.003 108.08 471.403 109.2C469.803 110.267 467.936 111.04 465.803 111.52C463.669 112 461.403 112.24 459.003 112.24H450.203C447.803 112.24 445.536 112 443.403 111.52C441.269 111.04 439.403 110.24 437.803 109.12C436.203 108 434.923 106.533 433.963 104.72C433.056 102.907 432.603 100.667 432.603 98V69.92H418.603V98ZM416.603 67.92H434.603L442.363 76.16V106C442.363 106.587 442.363 107.147 442.363 107.68C442.416 108.213 442.496 108.72 442.603 109.2C444.843 109.893 447.376 110.24 450.203 110.24H459.003C461.083 110.24 463.056 110.053 464.923 109.68C466.843 109.253 468.523 108.56 469.963 107.6C471.403 106.64 472.549 105.387 473.403 103.84C474.256 102.293 474.683 100.347 474.683 98V67.92H492.603L500.363 76.16V106C500.363 111.387 499.536 115.973 497.883 119.76C496.229 123.547 493.936 126.613 491.003 128.96C488.069 131.36 484.549 133.093 480.443 134.16C476.336 135.28 471.856 135.84 467.003 135.84H458.203C455.483 135.84 452.843 135.707 450.283 135.44C447.776 135.173 445.376 134.72 443.083 134.08C440.843 133.493 438.763 132.693 436.843 131.68C434.923 130.667 433.216 129.413 431.723 127.92C428.683 125.307 426.176 122.827 424.203 120.48C422.283 118.08 420.763 115.68 419.643 113.28C418.523 110.88 417.723 108.453 417.243 106C416.816 103.493 416.603 100.827 416.603 98V67.92ZM566.99 121.6L523.87 82V121.6H519.15V74.4H523.23L566.19 114V74.4H570.99V121.6H566.99ZM575.47 126.08V69.92H561.79V103.92L524.75 69.92H514.67V126.08H528.35V92L565.47 126.08H575.47ZM512.67 128.08V67.92H525.47L559.79 99.36V67.92H577.47L585.23 76.16V135.84H572.75L538.11 104.08V135.84H520.91L512.67 128.08ZM628.541 121.6V79.28H601.741V74.4H660.221V79.28H633.341V121.6H628.541ZM637.741 126.08V83.76H664.621V69.92H597.341V83.76H624.141V126.08H637.741ZM595.341 85.76V67.92H666.621L674.381 76.16V93.52H647.501V135.84H630.381L622.141 128.08V93.52H603.581L595.341 85.76Z" fill="white"/>
</svg>
