<svg id="Capa_1" enable-background="new 0 0 512 512" height="512" viewBox="0 0 512 512" width="512" xmlns="http://www.w3.org/2000/svg"><g><g><path clip-rule="evenodd" d="m149.382 201.071 13.848-23.01-13.848-27.303-5.628-5.636-5.598.496c-2.593.234-5.009 1.84-6.247 1.548-24.515-5.052-22.717 53.905 5.657 53.905z" fill="#f5a96c" fill-rule="evenodd"/></g><g><path clip-rule="evenodd" d="m374.433 201.655c28.374 0 30.231-58.489 5.657-53.7l-9.488-3.884-7.985 7.3-10.195 29.142 10.195 21.141h11.816z" fill="#f5a96c" fill-rule="evenodd"/></g><g><path clip-rule="evenodd" d="m178.14 512c-28.198-50.839-51.151-119.489-63.909-179.117-37.804 14.571-79.231 61.934-79.231 119.285v53.613c0 3.416 2.829 6.22 6.276 6.22h63.113 73.751z" fill="#918291" fill-rule="evenodd"/></g><g><path clip-rule="evenodd" d="m477 505.78v-53.613c0-57.35-41.457-104.714-79.231-119.285-12.758 59.629-35.711 128.279-63.909 179.118h73.75 63.113c3.448 0 6.277-2.803 6.277-6.22z" fill="#918291" fill-rule="evenodd"/></g><g><path clip-rule="evenodd" d="m333.86 512c28.198-50.839 51.151-119.489 63.909-179.117 4.596-21.521 7.867-41.903 9.576-59.803.737-8.497-6.335-12.615-11.639-12.615h-49.913-51.504c2.681 88.945 19.859 142.091 5.156 251.535z" fill="#c6d0da" fill-rule="evenodd"/></g><g><path clip-rule="evenodd" d="m212.554 512c-13.2-85.733-4.243-120.395 19.123-167.758l-11.491-67.979-53.979-15.798h-49.913c-5.304 0-12.405 4.117-11.668 12.615 1.709 17.9 5.009 38.282 9.605 59.803 12.758 59.628 35.711 128.278 63.909 179.117z" fill="#c6d0da" fill-rule="evenodd"/></g><g><path clip-rule="evenodd" d="m212.554 512 43.961-111.05-55.011-73.294c-23.364 47.363-23.364 117.883 11.05 184.344z" fill="#faf8f9" fill-rule="evenodd"/></g><g><path clip-rule="evenodd" d="m299.446 512c34.415-66.461 34.415-136.981 11.049-184.344-33.56 7.359-51.21 50.488-53.979 73.294l37.773 111.05z" fill="#faf8f9" fill-rule="evenodd"/></g><g><path clip-rule="evenodd" d="m269.333 400.95 20.183-45.583-68.564.175 16.529 45.408z" fill="#da4a54" fill-rule="evenodd"/></g><g><path clip-rule="evenodd" d="m294.289 512-24.956-111.05-15.911-14.718-15.941 14.718-24.927 111.05h43.431z" fill="#da4a54" fill-rule="evenodd"/></g><g><path clip-rule="evenodd" d="m294.289 512-24.957-111.05 20.183-45.582c-5.628 3.008-12.022 5.139-18.74 6.395-5.805 13.053-11.58 26.135-17.355 39.187l24.929 111.05z" fill="#c32430" fill-rule="evenodd"/></g><g><path clip-rule="evenodd" d="m220.952 355.542c29.789 15.447 83.827 8.147 89.543-27.887v-31.04h-108.99v31.04c0 12.469 7.897 21.901 19.447 27.887z" fill="#ffbc85" fill-rule="evenodd"/></g><g><path clip-rule="evenodd" d="m310.495 296.586c14.055-9.841 26.224-22.514 35.299-36.121 7.13-10.717 12.316-22.047 14.909-33.026 1.238-5.227 1.915-10.395 1.915-15.389 0-20.236 0-40.472 0-60.679l-104.924-4.059c-40.131-1.548-78.582 8.789-108.312 3.446 0 20.791-1.031 44.035.088 64.504.206 4.001.825 8.059 1.797 12.177 2.622 10.979 7.808 22.309 14.939 33.026 9.046 13.608 21.244 26.281 35.269 36.121 0 2.132 24.544 13.432 27.815 14.63 9.694 3.475 18.209 5.198 26.695 5.198 8.515 0 17.001-1.723 26.724-5.198 3.271-1.198 27.786-12.498 27.786-14.63z" fill="#fed1a3" fill-rule="evenodd"/></g><g><path clip-rule="evenodd" d="m212.378 232.549c13.878 0 25.133-11.155 25.133-24.908 0-13.754-11.256-24.879-25.133-24.879-13.878 0-25.133 11.125-25.133 24.879 0 4.614 1.267 8.935 3.477 12.644 4.36 7.329 12.433 12.264 21.656 12.264z" fill="#bcd0df" fill-rule="evenodd"/></g><g><path clip-rule="evenodd" d="m257.694 159.284c39.394 0 75.754-2.949 104.924-7.913 6.158-1.051 11.992-2.19 17.473-3.416 31.94-7.125 51.74-16.995 51.74-27.916 0-12.381-25.399-23.419-65.088-30.602-77.08-2.891-131.796-7.475-218.068 0-39.689 7.183-65.088 18.221-65.088 30.602 0 10.512 18.386 20.061 48.322 27.127 5.451 1.285 11.285 2.482 17.473 3.592 29.73 5.343 67.386 8.526 108.312 8.526z" fill="#918291" fill-rule="evenodd"/></g><g><path clip-rule="evenodd" d="m150.089 100.766c66.413 13.432 148.826 13.432 215.24 0 1.267-.263 2.416-.234 2.357-1.986-.088-3.008-.413-6.132-.943-9.344-7.013-42.545-51.475-101.385-82.825-87.31-10.696 4.818-19.123 7.242-26.224 8.059-7.072-.818-15.498-3.241-26.224-8.059-31.321-14.075-75.783 44.765-82.796 87.31-.53 3.212-.854 6.337-.943 9.344-.058 1.752 1.091 1.723 2.358 1.986z" fill="#c6d0da" fill-rule="evenodd"/></g><g><path clip-rule="evenodd" d="m366.743 89.436c-7.013-42.545-51.475-101.385-82.825-87.31-7.867 3.562-14.526 5.811-20.331 7.067 25.546 7.271 53.184 45.582 62.288 78.55 1.68 6.103 2.888 12.527 3.064 18.864 12.493-1.548 24.691-3.475 36.389-5.84.265-.058.53-.117.796-.146.913-.204 1.591-.467 1.562-1.84-.088-3.008-.413-6.133-.943-9.345z" fill="#a0aab7" fill-rule="evenodd"/></g><g><path clip-rule="evenodd" d="m380.091 147.954c31.94-7.125 51.74-16.995 51.74-27.916 0-12.381-25.399-23.419-65.088-30.602.53 3.212.854 6.337.943 9.344.029 1.372-.648 1.635-1.562 1.84-.265.029-.53.088-.796.146-11.697 2.365-23.896 4.292-36.389 5.84-4.891 22.017-40.809 33.814-48.469 35.537-5.48 1.226-11.314 2.365-17.473 3.416-3.33.555-6.777 1.11-10.313 1.606-25.104 3.679-54.686 5.928-86.479 6.249 26.577 3.709 57.928 5.869 91.488 5.869 39.394 0 75.754-2.949 104.924-7.913 6.159-1.05 11.993-2.189 17.474-3.416z" fill="#685d68" fill-rule="evenodd"/></g><g><path clip-rule="evenodd" d="m369.866 512c24.515-47.86 44.521-108.393 56.425-162.21-9.252-7.475-19.005-13.228-28.522-16.907-12.758 59.628-35.711 128.278-63.909 179.117z" fill="#685d68" fill-rule="evenodd"/></g><g><path clip-rule="evenodd" d="m142.134 512c-24.515-47.86-44.521-108.393-56.454-162.21 9.281-7.475 19.034-13.228 28.551-16.907 12.758 59.628 35.711 128.278 63.909 179.117z" fill="#685d68" fill-rule="evenodd"/></g><g><path clip-rule="evenodd" d="m237.511 207.641c0-13.754-11.256-24.879-25.133-24.879-2.622 0-5.156.38-7.513 1.11 9.105 3.767 15.498 12.644 15.498 23.01 0 11.155-7.425 20.616-17.62 23.769 2.976 1.226 6.217 1.898 9.635 1.898 13.877 0 25.133-11.155 25.133-24.908z" fill="#81a7c6" fill-rule="evenodd"/></g><g><path clip-rule="evenodd" d="m338.427 184.134c-1.503 24.967 3.742 54.751-4.538 76.331-2.829 7.388-6.718 14.805-11.491 21.959-2.77 4.176-5.863 8.264-9.193 12.235 12.906-9.549 24.102-21.463 32.588-34.194 7.13-10.717 12.316-22.047 14.909-33.026 1.238-5.227 1.915-10.395 1.915-15.389 0-3.446 0-6.921 0-10.395 0-7.037 0-14.075 0-21.141 0-9.724 0-19.448 0-29.142-29.17 4.964-65.53 7.913-104.924 7.913-33.56 0-64.911-2.161-91.488-5.869-5.863-.818-11.462-1.694-16.824-2.657l-.206 19.623c70.273 8.848 92.018 10.074 172.133 3.913 14.556-1.111 17.945-3.71 17.119 9.839z" fill="#ffbc85" fill-rule="evenodd"/></g><g><path clip-rule="evenodd" d="m297.089 332.824v17.55c1.267-1.022 2.475-2.102 3.595-3.271 5.038-5.169 8.574-11.622 9.812-19.448v-31.04c-35.682 25.054-71.069 26.631-108.99-.029v19.681c55.245 42.867 95.583-6.044 95.583 16.557z" fill="#f5a96c" fill-rule="evenodd"/></g><g><path d="m96.664 512v-33.089c0-4.265 3.462-7.726 7.727-7.726s7.727 3.461 7.727 7.726v33.089z" fill="#685d68"/></g><g><path d="m399.882 512v-33.089c0-4.265 3.462-7.726 7.727-7.726s7.727 3.461 7.727 7.726v33.089z" fill="#685d68"/></g><g><path d="m212.378 240.275c-18.12 0-32.861-14.64-32.861-32.634 0-17.979 14.741-32.606 32.861-32.606 18.119 0 32.861 14.627 32.861 32.606-.001 17.994-14.742 32.634-32.861 32.634zm0-49.787c-9.598 0-17.406 7.695-17.406 17.153 0 9.474 7.808 17.182 17.406 17.182s17.406-7.708 17.406-17.182c0-9.458-7.809-17.153-17.406-17.153z" fill="#685d68"/></g><g><path d="m170.805 232.435c-13.123 0-21.736-5.925-27.139-12.072-2.817-3.205-2.502-8.087.704-10.904 3.206-2.816 8.089-2.502 10.905.704 2.582 2.939 10.443 11.88 32.555 2.958 3.958-1.596 8.461.317 10.058 4.274s-.316 8.46-4.274 10.056c-8.799 3.548-16.351 4.984-22.809 4.984z" fill="#685d68"/></g><g><path d="m294.289 218.521c-4.268 0-7.727-3.459-7.727-7.726v-9.14c0-4.267 3.46-7.726 7.727-7.726s7.727 3.459 7.727 7.726v9.14c.001 4.266-3.459 7.726-7.727 7.726z" fill="#685d68"/></g><g><path d="m252.791 286.542c-9.473 0-19.194-2.241-26.924-11.054-2.814-3.208-2.494-8.09.714-10.903 3.209-2.814 8.091-2.493 10.905.714 4.535 5.171 10.602 6.621 22.388 5.355 4.244-.456 8.053 2.614 8.509 6.857s-2.615 8.052-6.857 8.508c-2.842.304-5.777.523-8.735.523z" fill="#685d68"/></g></g></svg>