<svg id="Layer_1" enable-background="new 0 0 512 512" height="512" viewBox="0 0 512 512" width="512" xmlns="http://www.w3.org/2000/svg"><g><path d="m377.482 189.43c0 104.619-54.595 166.878-121.941 166.878s-121.941-62.259-121.941-166.878 22.116-189.43 121.941-189.43 121.941 84.811 121.941 189.43z" fill="#918291"/><path d="m225.095 278.351h61.811v100.509h-61.811z" fill="#ffb09e"/><path d="m156.634 211.528v-67.614c0-54.878 44.487-99.366 99.366-99.366 54.878 0 99.366 44.487 99.366 99.366v67.24c0 54.981-44.571 99.553-99.553 99.553-54.775-.001-99.179-44.404-99.179-99.179z" fill="#ffcebf"/><path d="m256 44.548c-5.257 0-10.417.412-15.453 1.198 47.539 7.423 83.913 48.546 83.913 98.168v67.24c0 49.72-36.45 90.923-84.085 98.355 5.031.786 10.186 1.198 15.437 1.198 54.981 0 99.553-44.571 99.553-99.553v-67.24c.001-54.878-44.487-99.366-99.365-99.366z" fill="#ffb09e"/><g><path d="m247.924 237.033c3.057.798 5.566 1.197 8.076 1.197s5.02-.399 8.076-1.197c4.007-1.047 6.408-5.144 5.361-9.152-1.046-4.007-5.139-6.407-9.152-5.362-3.604.941-4.966.941-8.571 0-4.009-1.045-8.105 1.354-9.152 5.362-1.046 4.008 1.354 8.105 5.362 9.152z" fill="#ffb09e"/><path d="m238.229 150.381c1.046-4.008-1.354-8.105-5.362-9.151-11.642-3.039-18.739-3.039-30.381 0-4.008 1.046-6.409 5.144-5.362 9.151 1.047 4.008 5.146 6.408 9.151 5.362 9.164-2.393 13.639-2.393 22.803 0 .635.166 1.272.245 1.899.245 3.331.001 6.372-2.234 7.252-5.607z" fill="#9b5e5e"/><path d="m309.514 141.23c-11.641-3.039-18.74-3.039-30.381 0-4.008 1.046-6.408 5.144-5.362 9.151 1.047 4.008 5.145 6.406 9.151 5.362 9.164-2.393 13.639-2.393 22.803 0 .635.166 1.272.245 1.899.245 3.33 0 6.371-2.235 7.252-5.607 1.046-4.007-1.355-8.105-5.362-9.151z" fill="#9b5e5e"/><path d="m271.771 248.916c-9.728 5.415-21.815 5.414-31.542 0-3.62-2.014-8.187-.714-10.201 2.906-2.015 3.619-.713 8.187 2.906 10.201 7.115 3.96 15.089 5.939 23.066 5.939 7.976 0 15.953-1.98 23.066-5.939 3.619-2.014 4.92-6.581 2.906-10.201s-6.579-4.922-10.201-2.906z" fill="#ffb09e"/><g fill="#9b5e5e"><path d="m212.732 176.97c-4.142 0-7.5 3.358-7.5 7.5v6.181c0 4.142 3.358 7.5 7.5 7.5s7.5-3.358 7.5-7.5v-6.181c0-4.142-3.357-7.5-7.5-7.5z"/><path d="m299.268 176.97c-4.143 0-7.5 3.358-7.5 7.5v6.181c0 4.142 3.357 7.5 7.5 7.5s7.5-3.358 7.5-7.5v-6.181c0-4.142-3.358-7.5-7.5-7.5z"/></g></g><path d="m256 44.548s-.519 121.279-105.051 143.685c-.938.201-1.874-.368-2.081-1.261-3.672-15.799-28.857-142.424 107.132-142.424z" fill="#ae6c6c"/><path d="m256 44.548s.519 121.279 105.051 143.685c.938.201 1.874-.368 2.081-1.261 3.672-15.799 28.857-142.424-107.132-142.424z" fill="#ae6c6c"/><g><path d="m256 44.548c89.258 8.636 82.63 103.916 77.696 134.666 8.221 3.788 17.302 6.864 27.355 9.019.938.201 1.874-.368 2.081-1.261 3.672-15.8 28.857-142.424-107.132-142.424z" fill="#9b5e5e"/><path d="m256 44.548v.001z" fill="#855151"/></g><path d="m430.101 211.781c0 84.869-55.132 123.294-129.869 133.361 37.625-19.029 63.837-61.586 63.837-111.039 0-67.199-48.381-121.662-108.068-121.662s-108.068 54.463-108.068 121.662c0 49.454 26.212 92.011 63.837 111.039-74.739-10.067-129.871-48.492-129.871-133.361 0-100.907 77.949-182.71 174.101-182.71s174.101 81.803 174.101 182.71z" fill="#f3f0f3"/><g><g><g><path d="m256 29.071c-5.199 0-10.341.253-15.424.722 88.926 8.195 158.677 86.537 158.677 181.988 0 64.55-31.898 102.228-80.053 121.001-5.906 4.803-12.251 8.963-18.969 12.36 74.737-10.066 129.869-48.491 129.869-133.361.001-100.907-77.948-182.71-174.1-182.71z" fill="#e2dee2"/></g><g><path d="m147.932 234.102c0-61.302 40.265-111.997 92.644-120.424-5.038-.81-10.186-1.239-15.424-1.239-59.687 0-108.068 54.463-108.068 121.662 0 40.624 17.696 76.582 44.868 98.679 15.158 5.909 31.923 9.95 49.817 12.36-37.625-19.027-63.837-61.584-63.837-111.038z" fill="#e2dee2"/></g></g></g><path d="m404.527 512h-297.054c-3.314 0-6-2.686-6-6v-70.608c0-51.375 41.647-93.022 93.022-93.022h123.01c51.375 0 93.022 41.647 93.022 93.022v70.608c0 3.314-2.686 6-6 6z" fill="#918291"/><path d="m317.505 342.37h-30.905c51.375 0 93.022 41.648 93.022 93.022v76.608h24.905c3.314 0 6-2.686 6-6v-70.608c0-51.375-41.647-93.022-93.022-93.022z" fill="#7a6d79"/><path d="m207.581 342.37h96.837v169.63h-96.837z" fill="#f3f0f3"/><path d="m273.513 342.37h30.905v169.63h-30.905z" fill="#e2dee2"/><path d="m256 435.093c-9.541 0-17.275-7.734-17.275-17.275v-75.448h34.551v75.448c-.001 9.541-7.735 17.275-17.276 17.275z" fill="#918291"/></g></svg>