<?xml version="1.0"?>
<svg xmlns="http://www.w3.org/2000/svg" width="512" height="512" viewBox="0 0 128 128"><g><path d="M89.02,31.75v5.89c0,1.09.01,2.19-.03,3.28a23.406,23.406,0,0,1-.47,4.32l-1.51,6.89c-.78,3.61-1.31,7.47-2.71,10.91a21.926,21.926,0,0,1-40.6,0c-1.4-3.44-1.93-7.3-2.71-10.91l-1.51-6.89a23.406,23.406,0,0,1-.47-4.32c-.04-1.09-.03-2.19-.03-3.28V31.75A153.958,153.958,0,0,0,64,34,153.958,153.958,0,0,0,89.02,31.75Z" fill="#f4d5c8"/><path d="M66.207,55.4H64.25a3.431,3.431,0,0,1-3.393-3.945l.71-4.686a1.75,1.75,0,1,1,3.461.524l-.7,4.607h1.877a1.75,1.75,0,0,1,0,3.5Z" fill="#607880"/><path d="M63.875,63.5a10.366,10.366,0,0,1-8.027-3.346,1.749,1.749,0,1,1,2.7-2.224A6.987,6.987,0,0,0,63.875,60,6.987,6.987,0,0,0,69.2,57.931a1.75,1.75,0,1,1,2.7,2.225A10.371,10.371,0,0,1,63.875,63.5Z" fill="#607880"/><path d="M89.7,39.188a6.058,6.058,0,0,0-.678.052v1.328a22.226,22.226,0,0,1-.5,4.674l-1.51,6.891-.021.1a6.732,6.732,0,0,0,2.709.578,6.81,6.81,0,0,0,0-13.619Z" fill="#edc1b2"/><path d="M63.874,34a164.389,164.389,0,0,1-35.787-4.378,4,4,0,0,1-2.933-4.98v0a4,4,0,0,1,4.757-2.817A158.117,158.117,0,0,0,63.874,26a157.808,157.808,0,0,0,33.961-4.174,4,4,0,0,1,4.758,2.815h0a4,4,0,0,1-2.932,4.981A164.4,164.4,0,0,1,63.874,34Z" fill="#607880"/><path d="M38.3,39.188a6.058,6.058,0,0,1,.678.052v1.328a22.226,22.226,0,0,0,.5,4.674l1.51,6.891.021.1a6.732,6.732,0,0,1-2.709.578,6.81,6.81,0,0,1,0-13.619Z" fill="#edc1b2"/><path d="M63.874,26a147.787,147.787,0,0,0,25.134-2.378L81,1.75H74.008L64,7.833,53.992,1.75H47L38.978,23.66A147.533,147.533,0,0,0,63.874,26Z" fill="#4a6268"/><path d="M81.291,37.42a1.981,1.981,0,0,0-.958-.254H70.75a2,2,0,0,0-2,2v1.251A12,12,0,0,0,64,39.41h-.012a11.96,11.96,0,0,0-4.737,1.006v-1.25a2,2,0,0,0-2-2H47.667a1.981,1.981,0,0,0-.958.254H38.98v.22c0,1.09-.01,2.19.03,3.28h6.657v1.413a4,4,0,0,0,4,4H55.25a3.975,3.975,0,0,0,3.11-1.512,1.709,1.709,0,0,0,.346-.146l1.346-.793a8.476,8.476,0,0,1,3.935-.972H64a8.435,8.435,0,0,1,3.864.932l1.417.833a1.744,1.744,0,0,0,.367.154,3.975,3.975,0,0,0,3.1,1.5h5.583a4,4,0,0,0,4-4V40.92H88.99c.04-1.09.03-2.19.03-3.28v-.22Z" fill="#4a6268"/><path d="M49.905,80.967,51,72.391h0A21.953,21.953,0,0,1,44.43,64.63L25,76.677,43.917,97,34.75,109,53.5,126.25H64L49.266,83.078A6.717,6.717,0,0,0,49.905,80.967Z" fill="#607880"/><path d="M43.917,97,35.4,87.849A50.72,50.72,0,0,0,25,89.213,22.421,22.421,0,0,0,8.5,110.829v15.418h45L34.75,109Z" fill="#94e0da"/><path d="M83.831,97l8.516-9.151a50.72,50.72,0,0,1,10.4,1.364,22.421,22.421,0,0,1,16.5,21.616v15.418h-45L93,109Z" fill="#94e0da"/><polygon points="49.266 83.078 64 94.071 78.395 83.334 63.748 126.25 49.266 83.078" fill="#4a6268"/><path d="M102.745,76.677,83.509,64.749a21.91,21.91,0,0,1-6.741,7.81l1.075,8.408a6.743,6.743,0,0,0,.639,2.111L63.748,126.25h10.5L93,109,83.831,97Z" fill="#607880"/><path d="M78.4,83.334l.087-.256a6.743,6.743,0,0,1-.639-2.111l-1.075-8.408c.05-.035.1-.075.146-.11A21.846,21.846,0,0,1,51,72.391l-1.1,8.576a6.717,6.717,0,0,1-.639,2.111S63.921,94.131,64,94.071C64.072,94.125,76.208,84.982,78.4,83.334Z" fill="#edc1b2"/></g></svg>
